 <svg version="1.0" xmlns="http://www.w3.org/2000/svg" width="500.000000pt" height="779.000000pt" viewBox="0 0 700.000000 779.000000" preserveAspectRatio="xMidYMid meet">
<metadata>
Created by potrace 1.12, written by Peter Selinger 2001-2015
</metadata>
<g transform="translate(0.000000,779.000000) scale(0.100000,-0.100000)" fill="#61DAFB" stroke="none">
<path d="M3428 7748 l-38 -40 0 -511 c0 -502 0 -510 21 -544 12 -19 33 -39 47
-44 39 -15 107 -1 134 28 l23 25 2 501 c1 276 -1 519 -4 539 -3 29 -11 41 -34
52 -34 17 -39 3 -10 -28 19 -20 20 -38 21 -341 2 -727 3 -703 -25 -730 -24
-25 -65 -32 -100 -19 -43 17 -45 36 -45 559 l-1 495 31 44 c48 70 36 77 -22
14z"></path>
<path d="M655 6408 c-25 -27 -29 -39 -29 -86 0 -65 -52 -19 424 -381 346 -263
415 -311 447 -311 18 0 52 20 86 49 52 47 28 140 -50 191 -21 13 -70 50 -109
82 -39 32 -74 58 -79 58 -4 0 -33 23 -65 50 -32 28 -61 50 -65 50 -5 0 -27 15
-50 34 -44 36 -52 43 -258 199 -120 92 -130 97 -175 97 -39 -1 -52 -6 -77 -32z
m191 -50 c38 -28 175 -133 304 -232 129 -99 264 -202 300 -229 36 -27 77 -61
92 -75 32 -29 45 -80 29 -111 -17 -30 -66 -53 -98 -45 -24 7 -213 146 -619
456 -212 163 -199 150 -199 203 0 57 28 85 85 85 29 0 52 -11 106 -52z"></path>
<path d="M6148 6390 c-31 -27 -59 -50 -63 -50 -3 0 -82 -58 -173 -128 -92 -71
-192 -146 -222 -167 -30 -21 -80 -60 -111 -87 -30 -26 -60 -48 -65 -48 -6 0
-36 -23 -67 -51 -57 -50 -57 -51 -57 -108 0 -60 10 -77 67 -108 46 -26 69 -15
218 97 79 61 148 110 153 110 5 0 19 11 32 25 12 13 58 50 102 82 126 93 257
193 336 258 l72 59 0 51 c0 45 -4 55 -33 83 -28 27 -40 32 -83 32 -46 0 -55
-4 -106 -50z m167 -5 c26 -25 33 -71 16 -103 -10 -19 -59 -58 -639 -499 -67
-51 -138 -101 -158 -110 -34 -17 -37 -17 -72 2 -44 24 -57 63 -37 110 12 31
44 58 289 244 39 30 136 104 216 165 80 61 164 125 187 141 24 17 57 40 74 53
43 30 93 29 124 -3z"></path>
<path d="M3240 6225 c-19 -7 -60 -14 -90 -14 -30 -1 -68 -8 -84 -16 -15 -8
-38 -15 -50 -15 -11 0 -33 -6 -47 -14 -14 -7 -43 -16 -64 -20 -22 -4 -48 -14
-59 -22 -11 -8 -30 -14 -42 -14 -12 0 -27 -7 -34 -15 -7 -8 -20 -15 -29 -15
-9 0 -41 -13 -71 -30 -30 -16 -61 -32 -67 -35 -43 -17 -56 -25 -128 -74 -128
-88 -262 -200 -339 -284 -82 -88 -196 -230 -196 -243 0 -3 -12 -23 -27 -43
-24 -30 -85 -147 -107 -201 -3 -8 -10 -22 -14 -30 -34 -60 -52 -102 -52 -118
0 -10 -7 -27 -15 -38 -8 -10 -15 -33 -15 -50 0 -17 -7 -37 -15 -44 -9 -7 -15
-29 -15 -51 0 -21 -5 -50 -12 -66 -6 -15 -17 -77 -24 -138 -6 -60 -17 -128
-23 -151 -7 -28 -7 -75 -1 -150 17 -198 36 -339 48 -361 7 -12 12 -42 12 -66
0 -27 6 -49 15 -57 8 -7 15 -27 15 -44 0 -17 6 -41 14 -52 8 -11 17 -37 21
-57 4 -20 13 -41 21 -48 8 -6 14 -22 14 -34 0 -12 7 -28 15 -35 8 -7 15 -20
15 -30 0 -10 7 -23 15 -30 8 -7 15 -18 15 -24 0 -6 16 -35 35 -65 19 -29 35
-54 35 -57 0 -15 140 -205 188 -256 68 -71 112 -123 112 -131 0 -3 14 -26 30
-50 17 -25 30 -49 30 -55 0 -5 7 -15 15 -22 8 -7 15 -19 15 -27 0 -8 9 -26 20
-40 11 -14 20 -35 20 -47 0 -11 7 -30 15 -40 8 -11 15 -27 15 -37 0 -9 7 -22
15 -29 8 -7 15 -27 15 -44 0 -17 8 -44 17 -61 14 -25 17 -63 17 -230 1 -110
-3 -215 -7 -232 -8 -30 -6 -34 20 -44 15 -6 48 -14 73 -19 25 -5 60 -16 78
-25 48 -25 58 -16 65 59 3 36 11 75 17 85 16 30 13 249 -5 307 -8 27 -15 74
-15 105 0 33 -6 63 -15 75 -8 10 -15 30 -15 44 0 14 -9 42 -20 63 -11 20 -20
44 -20 52 0 8 -4 23 -9 33 -6 9 -20 40 -32 67 -12 28 -25 57 -30 65 -5 8 -16
29 -24 45 -23 45 -34 62 -102 153 -35 45 -63 85 -63 88 0 3 -32 40 -71 82 -61
66 -108 131 -166 227 -6 11 -31 58 -54 105 -23 47 -48 97 -55 112 -8 14 -14
35 -14 45 0 10 -6 27 -14 38 -7 11 -16 38 -20 60 -4 22 -12 45 -17 51 -5 6
-13 37 -18 70 -6 32 -14 79 -20 104 -16 71 -14 480 3 521 7 19 17 57 21 84 4
28 10 55 15 60 4 6 10 31 14 56 4 26 13 55 21 65 8 11 15 29 15 40 0 12 7 27
15 34 8 7 15 20 15 29 0 9 13 41 29 71 16 30 39 75 52 100 12 25 41 69 63 99
23 29 46 61 51 70 18 28 118 144 168 193 59 58 195 164 260 204 27 16 61 37
75 46 15 10 34 20 42 24 8 3 22 10 30 15 8 5 26 14 40 19 14 6 37 17 52 25 14
8 35 15 46 15 11 0 25 7 32 15 7 8 27 15 45 15 18 0 38 7 45 15 8 9 30 15 57
15 24 0 57 7 73 15 76 39 593 40 669 1 16 -9 50 -16 74 -16 27 0 49 -6 57 -15
7 -8 27 -15 44 -15 17 0 40 -6 51 -14 11 -7 31 -17 45 -21 30 -8 153 -69 195
-96 17 -10 39 -23 50 -28 36 -16 228 -162 289 -220 56 -54 196 -222 196 -236
0 -4 16 -26 35 -49 19 -24 35 -50 35 -59 0 -9 5 -19 11 -22 5 -4 14 -17 20
-28 5 -12 13 -29 18 -37 23 -38 51 -102 51 -119 0 -10 7 -24 15 -31 8 -7 15
-21 15 -32 0 -10 6 -29 14 -41 7 -12 17 -42 20 -67 4 -24 11 -49 17 -56 5 -6
14 -47 19 -90 5 -44 14 -97 20 -119 15 -63 12 -321 -5 -385 -8 -30 -15 -77
-15 -105 0 -27 -6 -62 -13 -76 -8 -14 -17 -45 -21 -68 -4 -24 -13 -53 -21 -64
-8 -12 -15 -31 -15 -43 0 -12 -7 -27 -15 -34 -8 -7 -15 -21 -15 -32 0 -11 -7
-32 -15 -46 -8 -15 -19 -38 -25 -52 -5 -14 -14 -32 -19 -40 -5 -8 -12 -22 -16
-30 -20 -51 -119 -189 -208 -291 -115 -132 -179 -218 -212 -284 -8 -16 -19
-37 -23 -45 -26 -43 -42 -80 -42 -93 0 -8 -7 -20 -15 -27 -8 -7 -15 -24 -15
-39 0 -14 -9 -43 -20 -64 -11 -20 -20 -50 -20 -65 0 -16 -7 -44 -17 -62 -24
-49 -24 -490 1 -537 9 -18 16 -46 16 -63 0 -41 18 -46 73 -21 25 12 59 21 74
22 15 0 42 8 58 18 28 16 30 21 27 67 -2 27 -11 60 -20 74 -23 35 -21 329 2
362 9 12 16 41 16 64 0 25 6 47 15 54 8 7 15 24 15 37 0 14 6 37 14 51 7 15
26 52 41 82 14 30 35 69 46 85 10 17 23 39 28 50 5 11 51 67 101 125 106 122
204 251 227 299 4 8 21 37 40 65 18 28 33 58 33 67 0 9 7 22 15 29 8 7 15 20
15 29 0 9 5 22 12 29 12 12 32 60 52 127 7 22 17 51 23 65 15 36 33 106 44
173 5 32 15 68 21 80 10 16 13 99 12 327 -1 258 -3 312 -17 349 -10 24 -17 58
-17 75 -1 17 -7 42 -15 56 -8 14 -14 38 -15 53 0 15 -9 45 -20 67 -11 22 -20
47 -20 57 0 10 -7 27 -15 37 -8 11 -15 30 -15 42 0 12 -7 27 -15 34 -8 7 -15
20 -15 30 0 10 -7 23 -15 30 -8 7 -15 21 -15 31 0 10 -5 21 -11 25 -6 3 -17
21 -25 38 -33 71 -133 211 -227 317 -79 90 -272 269 -290 269 -5 0 -27 15 -50
33 -23 19 -49 37 -57 41 -17 8 -37 20 -95 57 -22 14 -51 30 -65 34 -14 4 -34
14 -45 21 -11 8 -27 14 -36 14 -9 0 -22 7 -29 15 -7 8 -25 15 -40 15 -15 0
-33 7 -40 15 -7 8 -24 15 -39 15 -14 1 -44 9 -66 20 -22 11 -52 19 -66 20 -15
0 -40 7 -55 15 -16 8 -53 15 -82 15 -29 0 -69 7 -89 15 -48 20 -460 20 -513 0z
m405 -15 c228 -19 450 -80 663 -181 361 -170 724 -544 870 -899 13 -30 27 -64
32 -75 12 -27 39 -103 50 -140 68 -248 86 -400 75 -645 -4 -85 -10 -173 -15
-195 -5 -22 -15 -74 -24 -115 -16 -80 -66 -242 -92 -300 -90 -199 -190 -359
-324 -515 -170 -198 -275 -391 -317 -583 -24 -114 -29 -298 -8 -384 26 -111
23 -119 -60 -147 -79 -27 -92 -23 -111 31 -23 68 -36 288 -23 406 32 298 141
535 364 787 65 74 133 163 177 231 66 103 162 328 197 461 19 72 25 110 51
293 18 135 -9 394 -63 585 -150 535 -594 984 -1122 1134 -192 54 -207 56 -470
56 -274 0 -286 -2 -515 -72 -365 -112 -710 -393 -918 -746 -66 -114 -136 -276
-160 -377 -50 -202 -54 -228 -59 -405 -4 -155 -2 -198 17 -309 52 -313 192
-609 395 -836 193 -215 334 -492 383 -750 24 -127 27 -348 6 -432 -9 -38 -20
-70 -24 -73 -10 -6 -131 25 -145 37 -6 5 -10 87 -11 201 -1 158 -4 207 -22
277 -50 206 -163 418 -314 592 -249 287 -417 647 -460 983 -21 173 -26 319
-12 405 7 47 14 105 14 130 0 45 32 183 68 295 228 707 863 1213 1597 1274
128 11 196 11 310 1z"></path>
<path d="M3190 5643 c-8 -2 -24 -8 -35 -13 -11 -5 -38 -11 -60 -13 -45 -5 -93
-20 -147 -48 -20 -10 -43 -19 -51 -19 -8 0 -20 -7 -27 -15 -7 -8 -19 -15 -26
-15 -8 0 -48 -22 -90 -50 -41 -27 -79 -50 -82 -50 -20 0 -268 -265 -292 -311
-7 -13 -20 -33 -30 -44 -10 -11 -35 -53 -56 -93 -21 -40 -41 -75 -46 -78 -4
-3 -8 -17 -8 -31 0 -13 -9 -36 -20 -50 -11 -14 -20 -36 -20 -48 0 -13 -7 -36
-15 -51 -8 -16 -15 -42 -15 -59 0 -16 -7 -52 -15 -79 -9 -30 -15 -90 -15 -152
l0 -103 34 -35 c24 -23 48 -36 77 -41 38 -7 44 -5 76 27 33 33 34 38 40 129 3
52 9 99 13 104 4 6 11 34 15 63 4 30 13 66 21 80 8 15 14 39 14 53 0 15 7 32
15 39 8 7 15 23 15 36 0 12 4 25 9 28 5 3 21 29 36 58 15 29 33 60 41 69 8 8
14 19 14 23 0 23 217 259 255 277 31 15 61 33 78 48 22 18 89 51 103 51 6 0
17 7 24 15 7 8 24 15 39 15 14 0 39 7 55 15 15 8 41 15 57 15 15 0 48 7 72 15
23 8 82 16 131 19 87 5 97 8 149 55 42 38 38 86 -11 134 l-38 37 -134 -1 c-74
0 -142 -3 -150 -6z m295 -43 c21 -20 25 -32 23 -64 -4 -57 -37 -77 -140 -87
-95 -8 -186 -26 -241 -45 -20 -8 -46 -14 -56 -14 -10 0 -68 -25 -129 -56 -331
-166 -561 -522 -601 -931 -9 -98 -26 -123 -81 -123 -25 0 -45 8 -64 25 -25 23
-26 28 -26 129 0 278 140 586 382 841 139 147 324 255 543 316 108 30 163 37
272 36 82 -2 94 -4 118 -27z"></path>
<path d="M77 4373 c-18 -3 -31 -13 -37 -28 -5 -13 -17 -28 -27 -33 -10 -6 -14
-14 -10 -18 4 -4 26 8 48 26 47 37 51 38 277 39 81 1 132 5 132 11 0 10 -321
12 -383 3z"></path>
<path d="M490 4370 c0 -11 85 -16 254 -12 85 2 146 7 146 13 0 5 -79 9 -200 8
-110 0 -200 -4 -200 -9z"></path>
<path d="M910 4371 c0 -7 29 -11 83 -11 58 0 92 -5 117 -18 62 -31 66 -102 7
-146 -28 -21 -36 -21 -521 -21 l-492 0 -28 23 c-34 26 -46 28 -46 7 0 -9 16
-25 36 -37 32 -19 50 -21 167 -20 73 1 300 1 505 2 l372 0 38 34 c34 32 37 38
35 87 -1 41 -6 57 -27 78 -24 24 -33 26 -136 29 -76 3 -110 1 -110 -7z"></path>
<path d="M5875 4371 c-47 -20 -62 -56 -57 -138 2 -26 10 -38 43 -59 l41 -25
500 1 c427 0 504 3 530 16 29 15 46 40 34 51 -3 4 -21 -4 -39 -18 l-32 -24
-498 0 -499 0 -29 33 c-47 52 -35 112 26 138 23 9 73 14 150 14 70 0 115 4
115 10 0 12 -256 13 -285 1z"></path>
<path d="M6180 4371 c0 -11 242 -18 413 -12 64 2 117 7 117 12 0 5 -119 9
-265 8 -146 0 -265 -4 -265 -8z"></path>
<path d="M6750 4371 c0 -5 36 -11 80 -13 66 -4 84 -9 105 -28 29 -28 39 -23
26 12 -6 17 -20 27 -41 32 -48 9 -170 7 -170 -3z"></path>
<path d="M1467 2920 c-16 -5 -61 -33 -100 -63 -88 -66 -253 -193 -405 -310
-62 -48 -115 -87 -118 -87 -4 0 -23 -15 -43 -32 -21 -18 -58 -48 -84 -65 -72
-50 -109 -127 -76 -160 6 -6 16 -22 23 -34 13 -26 66 -43 113 -36 20 4 85 47
180 119 171 132 296 226 328 248 12 8 60 46 106 83 46 38 91 72 99 75 43 19
120 88 120 107 0 12 4 25 10 31 14 14 -8 79 -35 104 -26 24 -78 33 -118 20z
m97 -41 c28 -22 36 -73 16 -109 -5 -10 -162 -134 -347 -275 -186 -142 -354
-270 -373 -285 -75 -57 -122 -65 -164 -27 -37 33 -41 66 -14 106 13 18 117
105 233 192 116 88 278 211 360 274 83 62 164 121 180 129 41 22 77 20 109 -5z"></path>
<path d="M5454 2893 c-12 -2 -31 -14 -43 -27 -18 -20 -22 -33 -19 -82 l3 -58
75 -63 c41 -35 79 -63 83 -63 5 0 34 -22 65 -50 31 -27 60 -50 65 -50 5 0 35
-21 66 -47 31 -27 64 -52 73 -58 9 -5 101 -74 205 -153 l188 -144 53 5 c44 3
58 9 77 33 30 36 33 108 7 140 -17 20 -630 492 -685 528 -16 9 -45 33 -65 51
-38 33 -98 49 -148 38z m106 -44 c75 -46 744 -558 765 -585 8 -11 15 -36 15
-56 0 -47 -36 -78 -90 -78 -33 0 -67 23 -301 200 -546 415 -529 400 -529 455
0 77 68 107 140 64z"></path>
<path d="M2600 1826 c-14 -8 -36 -19 -50 -25 -79 -37 -180 -129 -180 -165 0
-13 -7 -29 -15 -36 -11 -10 -15 -35 -15 -110 0 -75 4 -100 15 -110 8 -7 15
-19 15 -27 0 -33 125 -162 158 -163 4 0 18 -9 32 -20 15 -11 41 -20 63 -20 21
0 50 -6 66 -14 41 -22 1513 -22 1573 0 22 8 52 14 67 14 15 0 50 16 80 35 29
19 56 35 61 35 14 0 87 88 110 133 32 61 31 215 -1 277 -26 50 -113 139 -155
158 -16 8 -46 22 -66 33 -36 18 -70 19 -885 19 -697 0 -852 -3 -873 -14z
m1770 -42 c135 -65 200 -152 208 -279 4 -63 1 -80 -23 -134 -46 -102 -131
-166 -270 -203 -65 -17 -121 -18 -817 -17 -678 1 -754 2 -815 18 -90 24 -146
53 -198 105 -63 64 -89 125 -89 216 -1 67 3 82 33 138 38 69 80 110 151 144
99 47 87 47 945 45 l810 -2 65 -31z"></path>
<path d="M2687 1649 c-55 -13 -90 -33 -126 -74 -26 -30 -31 -44 -31 -85 0 -41
5 -55 32 -86 18 -21 57 -48 86 -61 l53 -23 773 0 c744 0 775 1 817 19 68 30
129 102 129 152 0 34 -46 105 -82 126 -71 42 -95 43 -870 42 -409 -1 -760 -5
-781 -10z m1547 -18 c3 -4 23 -11 44 -14 52 -9 122 -84 122 -132 0 -28 -59
-94 -104 -116 -40 -20 -58 -20 -826 -21 -768 0 -786 0 -825 20 -57 29 -86 63
-92 111 -5 39 -3 44 44 91 32 32 59 50 74 50 13 0 31 5 39 10 19 12 1517 14
1524 1z"></path>
<path d="M4135 932 c-55 -34 -57 -41 -59 -200 -1 -81 -5 -153 -9 -159 -5 -7
-16 -13 -25 -13 -9 0 -32 -9 -50 -20 -18 -11 -39 -20 -46 -20 -7 0 -19 -7 -26
-15 -7 -8 -23 -15 -35 -15 -12 0 -28 -6 -34 -14 -7 -8 -24 -17 -39 -21 -15 -4
-32 -11 -39 -17 -19 -15 -86 -48 -99 -48 -6 0 -17 -7 -24 -15 -7 -8 -19 -15
-28 -15 -8 0 -40 -12 -70 -26 -54 -25 -55 -25 -98 -9 -24 9 -46 21 -49 26 -4
5 -14 9 -24 9 -10 0 -24 7 -31 15 -7 8 -23 15 -36 15 -12 0 -25 4 -28 9 -3 4
-32 21 -63 36 -32 15 -65 31 -73 36 -8 5 -22 12 -30 15 -8 3 -22 10 -30 15 -8
5 -22 12 -30 15 -8 3 -22 10 -30 15 -8 5 -30 15 -47 23 -38 17 -36 7 -34 161
1 117 1 121 -27 160 -26 38 -31 40 -83 43 -54 3 -56 2 -82 -36 l-27 -38 0
-200 0 -200 29 -31 c16 -18 42 -35 58 -39 15 -4 40 -15 55 -25 14 -11 33 -19
41 -19 8 0 20 -7 27 -15 7 -8 19 -15 27 -15 7 0 43 -16 79 -35 35 -19 71 -35
78 -35 7 0 19 -7 26 -15 7 -8 23 -15 36 -15 12 0 25 -4 29 -9 6 -11 108 -61
123 -61 5 0 15 -7 22 -15 7 -8 22 -15 33 -15 11 0 29 -7 39 -17 25 -23 161
-22 187 1 10 9 25 16 33 16 9 0 21 7 28 15 7 8 18 15 24 15 6 0 43 16 81 35
39 19 77 35 86 35 9 0 22 7 29 15 7 8 17 15 23 15 14 0 116 51 123 61 3 5 16
9 28 9 13 0 29 7 36 15 7 8 21 15 32 15 31 0 118 75 141 121 17 35 18 46 9 73
-7 18 -12 46 -12 64 0 31 -14 50 -24 33 -3 -5 -1 -34 5 -66 23 -128 7 -140
-526 -386 -220 -102 -207 -103 -485 28 -375 176 -449 214 -470 240 -18 24 -20
41 -20 215 0 187 0 189 25 213 35 35 76 33 109 -6 25 -29 26 -36 26 -153 0
-96 3 -126 16 -145 18 -26 454 -243 527 -262 40 -11 48 -10 150 35 188 82 451
212 469 232 13 15 17 47 20 162 3 139 4 144 28 162 34 26 66 25 95 -5 24 -23
25 -31 25 -135 0 -67 4 -110 10 -110 12 0 11 -8 15 112 5 125 -2 146 -51 174
-48 28 -52 28 -89 6z"></path>
</g>
</svg>